<svg width="22" height="24" viewBox="0 0 22 24" fill="none" xmlns="http://www.w3.org/2000/svg">
<path d="M13.2084 15.6253V17.9859H4.77752V15.6253H13.2084ZM19.1663 21.5831V8.43091H2.41686V21.5831H19.1663ZM19.1663 2.41686C19.8033 2.41686 20.3653 2.66042 20.8525 3.14754C21.3396 3.63466 21.5831 4.19672 21.5831 4.83372V21.5831C21.5831 22.2201 21.3396 22.7822 20.8525 23.2693C20.3653 23.7564 19.8033 24 19.1663 24H2.41686C1.74239 24 1.16159 23.7564 0.674473 23.2693C0.224824 22.7822 0 22.2201 0 21.5831V4.83372C0 4.19672 0.224824 3.63466 0.674473 3.14754C1.16159 2.66042 1.74239 2.41686 2.41686 2.41686H3.59719V0H6.01405V2.41686H15.5691V0H17.9859V2.41686H19.1663ZM16.8056 10.7916V13.2084H4.77752V10.7916H16.8056Z" fill="white"/>
</svg>
