<svg width="26" height="18" viewBox="0 0 26 18" fill="none" xmlns="http://www.w3.org/2000/svg">
<path d="M1.11839e-07 1.292C1.41649e-07 0.95101 0.135609 0.623982 0.376995 0.382864C0.618382 0.141746 0.945773 0.00628819 1.28714 0.00628822L11.5843 0.00628912C11.7633 -0.0116554 11.944 0.00806966 12.1149 0.0641905C12.2858 0.120311 12.443 0.211581 12.5764 0.332117C12.7097 0.452653 12.8164 0.599779 12.8893 0.764003C12.9623 0.928226 13 1.1059 13 1.28558C13 1.46525 12.9623 1.64292 12.8893 1.80715C12.8164 1.97137 12.7097 2.1185 12.5764 2.23903C12.443 2.35957 12.2858 2.45084 12.1149 2.50696C11.944 2.56308 11.7633 2.5828 11.5843 2.56486L1.28714 2.56486C0.947991 2.56488 0.622538 2.43118 0.381517 2.19284C0.140498 1.9545 0.0033923 1.63076 1.11839e-07 1.292Z" fill="#3C7EF3"/>
<path d="M2.01919e-06 9.00739C2.049e-06 8.6664 0.136284 8.33937 0.37887 8.09826C0.621456 7.85714 0.950474 7.72168 1.29354 7.72168L24.5773 7.72168C24.7571 7.70374 24.9388 7.72346 25.1105 7.77958C25.2822 7.8357 25.4402 7.92697 25.5743 8.04751C25.7083 8.16805 25.8155 8.31517 25.8888 8.47939C25.9621 8.64362 26 8.8213 26 9.00097C26 9.18064 25.9621 9.35832 25.8888 9.52254C25.8155 9.68676 25.7083 9.83389 25.5743 9.95443C25.4402 10.075 25.2822 10.1662 25.1105 10.2224C24.9388 10.2785 24.7571 10.2982 24.5773 10.2803L1.29354 10.2803C0.952703 10.2803 0.625631 10.1466 0.383413 9.90823C0.141197 9.66989 0.00341042 9.34615 2.01919e-06 9.00739Z" fill="#3C7EF3"/>
<path d="M1.42979 15.436C1.24903 15.418 1.06647 15.4378 0.893891 15.4939C0.721312 15.55 0.562544 15.6413 0.427822 15.7618C0.293101 15.8823 0.185421 16.0295 0.111723 16.1937C0.038027 16.3579 -4.9463e-05 16.5356 -4.94787e-05 16.7153C-4.94944e-05 16.8949 0.0380269 17.0726 0.111723 17.2368C0.185421 17.4011 0.2931 17.5482 0.427822 17.6687C0.562544 17.7893 0.721312 17.8805 0.89389 17.9366C1.06647 17.9928 1.24903 18.0125 1.42979 17.9945L17.0298 17.9945C17.3505 17.9627 17.6478 17.8142 17.864 17.5778C18.0802 17.3414 18.2 17.034 18.2 16.7153C18.2 16.3965 18.0802 16.0891 17.864 15.8527C17.6478 15.6163 17.3505 15.4678 17.0298 15.436L1.42979 15.436Z" fill="#3C7EF3"/>
</svg>
