<svg width="24" height="17" viewBox="0 0 24 17" fill="none" xmlns="http://www.w3.org/2000/svg">
<path d="M8.39437 9.57747C9.22066 9.57747 10.1784 9.69014 11.2676 9.91549C9.35211 10.9671 8.39437 12.3568 8.39437 14.0845V16.7887H0V13.8028C0 12.939 0.507042 12.169 1.52113 11.493C2.57277 10.8169 3.71831 10.3286 4.95775 10.0282C6.19718 9.7277 7.34272 9.57747 8.39437 9.57747ZM13.0704 11.7183C14.5728 11.1174 16.0188 10.8169 17.4085 10.8169C18.7981 10.8169 20.2441 11.1174 21.7465 11.7183C23.2488 12.3193 24 13.108 24 14.0845V16.7887H10.8169V14.0845C10.8169 13.108 11.5681 12.3193 13.0704 11.7183ZM10.9296 6.14085C10.216 6.85446 9.37089 7.21127 8.39437 7.21127C7.41784 7.21127 6.57277 6.85446 5.85916 6.14085C5.14554 5.42723 4.78873 4.58216 4.78873 3.60563C4.78873 2.62911 5.14554 1.78404 5.85916 1.07042C6.57277 0.356808 7.41784 0 8.39437 0C9.37089 0 10.216 0.356808 10.9296 1.07042C11.6432 1.78404 12 2.62911 12 3.60563C12 4.58216 11.6432 5.42723 10.9296 6.14085ZM19.493 7.5493C18.9296 8.11268 18.2347 8.39437 17.4085 8.39437C16.5822 8.39437 15.8685 8.11268 15.2676 7.5493C14.7042 6.94836 14.4225 6.23474 14.4225 5.40845C14.4225 4.58216 14.7042 3.86855 15.2676 3.26761C15.8685 2.66667 16.5822 2.3662 17.4085 2.3662C18.2347 2.3662 18.9296 2.66667 19.493 3.26761C20.0939 3.86855 20.3944 4.58216 20.3944 5.40845C20.3944 6.23474 20.0939 6.94836 19.493 7.5493Z" fill="white"/>
</svg>
