<svg width="24" height="24" viewBox="0 0 24 24" fill="none" xmlns="http://www.w3.org/2000/svg">
<path d="M12 0C5.3832 0 0 5.3832 0 12C0 18.6168 5.3832 24 12 24C18.6168 24 24 18.6168 24 12C24 5.3832 18.6168 0 12 0ZM13.2 17.898V19.2H10.8V17.904C7.9932 17.4636 7.2 15.5016 7.2 14.4H9.6C9.6132 14.5716 9.7908 15.6 12 15.6C13.656 15.6 14.4 14.898 14.4 14.4C14.4 14.0112 14.4 13.2 12 13.2C7.824 13.2 7.2 10.944 7.2 9.6C7.2 8.0544 8.4348 6.4992 10.8 6.102V4.8144H13.2V6.1452C15.2808 6.6372 16.08 8.3688 16.08 9.6H14.88L13.68 9.6216C13.6632 9.1656 13.422 8.4 12 8.4C10.4412 8.4 9.6 9.0192 9.6 9.6C9.6 10.0488 9.6 10.8 12 10.8C16.176 10.8 16.8 13.056 16.8 14.4C16.8 15.9456 15.5652 17.5008 13.2 17.898Z" fill="white"/>
</svg>
