<svg width="16" height="20" viewBox="0 0 16 20" fill="none" xmlns="http://www.w3.org/2000/svg">
<path d="M14.2356 2.42308H10.9038V1.81731C10.9038 0.813624 10.0902 0 9.08654 0H6.66346C5.65978 0 4.84615 0.813624 4.84615 1.81731V2.42308H1.51442C0.678045 2.42308 0 3.10112 0 3.9375V5.14904C0 5.48361 0.271195 5.75481 0.605769 5.75481H15.1442C15.4788 5.75481 15.75 5.48361 15.75 5.14904V3.9375C15.75 3.10112 15.072 2.42308 14.2356 2.42308ZM6.05769 1.81731C6.05769 1.48338 6.32953 1.21154 6.66346 1.21154H9.08654C9.42047 1.21154 9.69231 1.48338 9.69231 1.81731V2.42308H6.05769V1.81731Z" fill="#FF5858"/>
<path d="M1.14974 6.96484C1.04165 6.96484 0.95552 7.05518 0.960669 7.16316L1.46043 17.6521C1.50662 18.6229 2.30396 19.3831 3.27546 19.3831H12.4748C13.4463 19.3831 14.2437 18.6229 14.2899 17.6521L14.7896 7.16316C14.7948 7.05518 14.7086 6.96484 14.6005 6.96484H1.14974ZM10.2982 8.47927C10.2982 8.14458 10.5693 7.8735 10.904 7.8735C11.2387 7.8735 11.5098 8.14458 11.5098 8.47927V16.3543C11.5098 16.689 11.2387 16.96 10.904 16.96C10.5693 16.96 10.2982 16.689 10.2982 16.3543V8.47927ZM7.26938 8.47927C7.26938 8.14458 7.54046 7.8735 7.87515 7.8735C8.20983 7.8735 8.48092 8.14458 8.48092 8.47927V16.3543C8.48092 16.689 8.20983 16.96 7.87515 16.96C7.54046 16.96 7.26938 16.689 7.26938 16.3543V8.47927ZM4.24053 8.47927C4.24053 8.14458 4.51161 7.8735 4.8463 7.8735C5.18099 7.8735 5.45207 8.14458 5.45207 8.47927V16.3543C5.45207 16.689 5.18099 16.96 4.8463 16.96C4.51161 16.96 4.24053 16.689 4.24053 16.3543V8.47927Z" fill="#FF5858"/>
</svg>
