<svg width="12" height="12" viewBox="0 0 12 12" fill="none" xmlns="http://www.w3.org/2000/svg">
<path d="M11.6039 4.43732C11.1678 4.07071 10.5006 4.11438 10.122 4.5658L9.89453 4.83497L11.5071 6.18804L11.7244 5.91985C12.098 5.47545 12.0507 4.81174 11.6039 4.43732Z" fill="#546376"/>
<path d="M7.04763 8.19823L6.92762 8.34025C6.82346 8.46496 6.74843 8.614 6.71075 8.77195L6.38458 10.1369C6.35375 10.2661 6.39864 10.4018 6.50038 10.4871C6.59941 10.5703 6.7391 10.5945 6.86528 10.5406L8.15318 9.98208C8.30222 9.91732 8.43585 9.81763 8.54 9.69394L8.66043 9.55146L7.04763 8.19823Z" fill="#546376"/>
<path d="M9.44027 5.36652L7.50073 7.66136L9.11345 9.01459L11.0529 6.71958L9.44027 5.36652Z" fill="#546376"/>
<path d="M8.79279 1.55263L7.46 0.286291C7.334 0.16684 7.179 0.0964845 7.01562 0.0507812V2.10219H9.09852C9.05499 1.89379 8.9488 1.70073 8.79279 1.55263Z" fill="#546376"/>
<path d="M6.02876 8.6095C6.09147 8.34704 6.21651 8.09865 6.38987 7.89102L9.12194 4.65825V2.80675H6.66603C6.47211 2.80675 6.31519 2.64983 6.31519 2.45591V0H1.05253C0.472142 0 0 0.472142 0 1.05253V10.9229C0 11.5033 0.472142 11.9755 1.05253 11.9755H8.06941C8.6498 11.9755 9.12194 11.5033 9.12194 10.9229V10.0936L9.07638 10.1475C8.90404 10.3527 8.68168 10.5182 8.43396 10.6262L7.14503 11.185C6.78174 11.3418 6.36122 11.2863 6.05002 11.0256C5.74268 10.7677 5.60941 10.3651 5.70259 9.97449L6.02876 8.6095ZM1.75422 2.10506H5.26266C5.45658 2.10506 5.6135 2.26198 5.6135 2.45591C5.6135 2.64983 5.45658 2.80675 5.26266 2.80675H1.75422C1.5603 2.80675 1.40338 2.64983 1.40338 2.45591C1.40338 2.26198 1.5603 2.10506 1.75422 2.10506ZM1.75422 4.23352H7.36772C7.56164 4.23352 7.71856 4.39044 7.71856 4.58436C7.71856 4.77828 7.56164 4.9352 7.36772 4.9352H1.75422C1.5603 4.9352 1.40338 4.77828 1.40338 4.58436C1.40338 4.39044 1.5603 4.23352 1.75422 4.23352ZM4.56097 9.14533H1.75422C1.5603 9.14533 1.40338 8.98841 1.40338 8.79449C1.40338 8.60056 1.5603 8.44364 1.75422 8.44364H4.56097C4.75489 8.44364 4.91181 8.60056 4.91181 8.79449C4.91181 8.98841 4.75489 9.14533 4.56097 9.14533ZM1.75422 7.04027C1.5603 7.04027 1.40338 6.88335 1.40338 6.68942C1.40338 6.4955 1.5603 6.33858 1.75422 6.33858H5.96435C6.15827 6.33858 6.31519 6.4955 6.31519 6.68942C6.31519 6.88335 6.15827 7.04027 5.96435 7.04027H1.75422Z" fill="#546376"/>
</svg>
