<svg width="11" height="18" viewBox="0 0 11 18" fill="none" xmlns="http://www.w3.org/2000/svg">
<path d="M0.000202443 4.824H2.0642C2.0642 2.952 3.2882 1.824 5.2562 1.824C7.2002 1.824 8.4482 3.024 8.4482 4.944C8.4482 7.848 6.1202 8.376 3.3842 8.376H2.6882L2.7842 12.168H4.6802L4.7522 9.888C8.1122 9.888 10.5362 8.448 10.5362 4.944C10.5362 1.896 8.3762 0 5.2322 0C2.0882 0 -0.0237975 1.92 0.000202443 4.824ZM5.1602 15.6C5.1602 14.76 4.5122 14.112 3.7202 14.112C2.8802 14.112 2.2322 14.76 2.2322 15.6C2.2322 16.44 2.8802 17.088 3.7202 17.088C4.5122 17.088 5.1602 16.44 5.1602 15.6Z" fill="white"/>
</svg>
