<svg width="24" height="24" viewBox="0 0 24 24" fill="none" xmlns="http://www.w3.org/2000/svg">
<path d="M18.0282 12C18.0282 12.338 17.8967 12.6197 17.6338 12.8451C17.4085 13.0704 17.1268 13.1831 16.7887 13.1831H4.78873L0 18.0282V1.1831C0 0.84507 0.112676 0.56338 0.338028 0.338028C0.56338 0.112676 0.84507 0 1.1831 0H16.7887C17.1268 0 17.4085 0.112676 17.6338 0.338028C17.8967 0.56338 18.0282 0.84507 18.0282 1.1831V12ZM22.8169 4.78873C23.1549 4.78873 23.4366 4.90141 23.662 5.12676C23.8873 5.35211 24 5.6338 24 5.97183V24L19.2113 19.2113H5.97183C5.6338 19.2113 5.35211 19.0986 5.12676 18.8732C4.90141 18.6479 4.78873 18.3662 4.78873 18.0282V15.6056H20.3944V4.78873H22.8169Z" fill="white"/>
</svg>
