<svg width="14" height="13" viewBox="0 0 14 13" fill="none" xmlns="http://www.w3.org/2000/svg">
<path d="M12.1137 0.13623H10.7526C10.2272 0.13623 9.7998 0.563619 9.7998 1.08901V7.35012C9.7998 7.87551 10.2272 8.3029 10.7526 8.3029H12.1137C12.6391 8.3029 13.0665 7.87551 13.0665 7.35012V1.08901C13.0665 0.563619 12.6391 0.13623 12.1137 0.13623Z" fill="#EB5757"/>
<path d="M2.78695 0C1.72528 0 0.821505 0.762222 0.641838 1.80756L0.0320602 5.34644C-0.196607 6.68033 0.826949 7.89444 2.17717 7.89444H4.74695C4.74695 7.89444 4.33862 8.71111 4.33862 10.0722C4.33862 11.7056 5.56362 12.25 6.10806 12.25C6.6525 12.25 6.92473 11.9778 6.92473 10.6167C6.92473 9.32307 8.17749 8.28209 8.98327 7.74581V1.00123C8.11162 0.5978 6.36667 0 3.65806 0H2.78695Z" fill="#EB5757"/>
</svg>
