<svg width="14" height="12" viewBox="0 0 14 12" fill="none" xmlns="http://www.w3.org/2000/svg">
<path fill-rule="evenodd" clip-rule="evenodd" d="M0.96875 1.5117C0.96875 1.11171 1.12764 0.728103 1.41048 0.445269C1.69331 0.162435 2.07692 0.00354004 2.47691 0.00354004L11.5258 0.00354004C11.9258 0.00354004 12.3094 0.162435 12.5923 0.445269C12.8751 0.728103 13.034 1.11171 13.034 1.5117V7.54432C13.034 7.94431 12.8751 8.32791 12.5923 8.61075C12.3094 8.89358 11.9258 9.05248 11.5258 9.05248H9.64065C9.52358 9.05248 9.40812 9.07973 9.30342 9.13209C9.19871 9.18444 9.10763 9.26046 9.03739 9.35411L7.60464 11.2642C7.5344 11.3578 7.44332 11.4339 7.33861 11.4862C7.2339 11.5386 7.11844 11.5658 7.00138 11.5658C6.88431 11.5658 6.76885 11.5386 6.66414 11.4862C6.55943 11.4339 6.46835 11.3578 6.39811 11.2642L4.96536 9.35411C4.89512 9.26046 4.80404 9.18444 4.69934 9.13209C4.59463 9.07973 4.47917 9.05248 4.3621 9.05248H2.47691C2.07692 9.05248 1.69331 8.89358 1.41048 8.61075C1.12764 8.32791 0.96875 7.94431 0.96875 7.54432V1.5117ZM4.73914 4.52801C4.73914 4.728 4.65969 4.91981 4.51828 5.06122C4.37686 5.20264 4.18506 5.28209 3.98506 5.28209C3.78507 5.28209 3.59327 5.20264 3.45185 5.06122C3.31043 4.91981 3.23098 4.728 3.23098 4.52801C3.23098 4.32801 3.31043 4.13621 3.45185 3.9948C3.59327 3.85338 3.78507 3.77393 3.98506 3.77393C4.18506 3.77393 4.37686 3.85338 4.51828 3.9948C4.65969 4.13621 4.73914 4.32801 4.73914 4.52801ZM7.75545 4.52801C7.75545 4.728 7.67601 4.91981 7.53459 5.06122C7.39317 5.20264 7.20137 5.28209 7.00138 5.28209C6.80138 5.28209 6.60958 5.20264 6.46816 5.06122C6.32675 4.91981 6.2473 4.728 6.2473 4.52801C6.2473 4.32801 6.32675 4.13621 6.46816 3.9948C6.60958 3.85338 6.80138 3.77393 7.00138 3.77393C7.20137 3.77393 7.39317 3.85338 7.53459 3.9948C7.67601 4.13621 7.75545 4.32801 7.75545 4.52801ZM10.0177 5.28209C10.2177 5.28209 10.4095 5.20264 10.5509 5.06122C10.6923 4.91981 10.7718 4.728 10.7718 4.52801C10.7718 4.32801 10.6923 4.13621 10.5509 3.9948C10.4095 3.85338 10.2177 3.77393 10.0177 3.77393C9.8177 3.77393 9.62589 3.85338 9.48448 3.9948C9.34306 4.13621 9.26361 4.32801 9.26361 4.52801C9.26361 4.728 9.34306 4.91981 9.48448 5.06122C9.62589 5.20264 9.8177 5.28209 10.0177 5.28209Z" fill="#546376"/>
</svg>
