<svg width="24" height="24" viewBox="0 0 24 24" fill="none" xmlns="http://www.w3.org/2000/svg">
<path d="M8.73709 14.9859C9.56338 15.8122 10.5587 16.2254 11.723 16.2254C12.8873 16.2254 13.8826 15.8122 14.7089 14.9859C15.5352 14.1596 15.9484 13.1643 15.9484 12C15.9484 10.8357 15.5352 9.84038 14.7089 9.01408C13.8826 8.18779 12.8873 7.77465 11.723 7.77465C10.5587 7.77465 9.56338 8.18779 8.73709 9.01408C7.9108 9.84038 7.49765 10.8357 7.49765 12C7.49765 13.1643 7.9108 14.1596 8.73709 14.9859ZM20.6808 13.1831L23.216 15.1549C23.4789 15.3427 23.5164 15.6056 23.3286 15.9437L20.9061 20.1127C20.7559 20.3756 20.5117 20.4507 20.1737 20.338L17.1878 19.1549C16.3991 19.7183 15.723 20.1127 15.1596 20.338L14.7089 23.493C14.6338 23.831 14.446 24 14.1455 24H9.30047C9 24 8.81221 23.831 8.73709 23.493L8.28638 20.338C7.57277 20.0376 6.89671 19.6432 6.25822 19.1549L3.2723 20.338C2.93427 20.4507 2.69014 20.3756 2.53991 20.1127L0.117371 15.9437C-0.0704225 15.6056 -0.0328638 15.3427 0.230047 15.1549L2.76526 13.1831C2.7277 12.9202 2.70892 12.5258 2.70892 12C2.70892 11.4742 2.7277 11.0798 2.76526 10.8169L0.230047 8.84507C-0.0328638 8.65728 -0.0704225 8.39437 0.117371 8.05634L2.53991 3.88732C2.69014 3.62441 2.93427 3.5493 3.2723 3.66197L6.25822 4.84507C7.04695 4.28169 7.723 3.88732 8.28638 3.66197L8.73709 0.507042C8.81221 0.169014 9 0 9.30047 0H14.1455C14.446 0 14.6338 0.169014 14.7089 0.507042L15.1596 3.66197C15.8732 3.96244 16.5493 4.35681 17.1878 4.84507L20.1737 3.66197C20.5117 3.5493 20.7559 3.62441 20.9061 3.88732L23.3286 8.05634C23.5164 8.39437 23.4789 8.65728 23.216 8.84507L20.6808 10.8169C20.7183 11.0798 20.7371 11.4742 20.7371 12C20.7371 12.5258 20.7183 12.9202 20.6808 13.1831Z" fill="white"/>
</svg>
