<svg width="10" height="17" viewBox="0 0 10 17" fill="none" xmlns="http://www.w3.org/2000/svg">
<path d="M3.32422 10.2789C3.32422 10.4458 3.45956 10.5812 3.62652 10.5812H4.01346C3.94772 10.3868 3.92402 10.1807 3.94393 9.97656H3.62652C3.45956 9.97656 3.32422 10.1119 3.32422 10.2789Z" fill="#6FCF97"/>
<path d="M5.71796 0.0199429C5.48264 -0.030234 5.23703 0.0151587 5.03519 0.146128C4.83335 0.277098 4.69183 0.482909 4.64178 0.718255L3.77115 6.26848C3.73204 6.4797 3.55095 6.63508 3.33623 6.64163C3.12151 6.64818 2.93128 6.50413 2.87937 6.29568L1.81225 1.38634C1.76465 1.05811 1.54168 0.782038 1.23081 0.666447C0.919943 0.550855 0.57077 0.614179 0.320291 0.831575C0.0698119 1.04897 -0.0420172 1.38576 0.0286801 1.7098L1.04138 7.25397C1.1195 7.67613 1.11437 8.10949 1.02627 8.52968C1.33541 8.22458 1.66574 7.94173 2.01479 7.68324C2.37794 7.40623 2.82167 7.25549 3.2784 7.25397H5.29777L6.41628 1.09915C6.46735 0.86339 6.42239 0.616993 6.29134 0.414462C6.16029 0.211931 5.95395 0.0699571 5.71796 0.0199429Z" fill="#6FCF97"/>
<path d="M6.13366 11.2202C5.97586 11.3345 5.79714 11.4167 5.60766 11.4621C5.64868 11.528 5.68505 11.5966 5.71649 11.6676C5.75714 11.7608 5.74828 11.8681 5.69289 11.9533C5.63751 12.0385 5.54302 12.0902 5.4414 12.0908C5.32191 12.0901 5.2141 12.019 5.1663 11.9095C4.97337 11.4674 4.53617 11.1823 4.05384 11.1839H3.6276C3.12673 11.1839 2.7207 10.7779 2.7207 10.277C2.7207 9.77617 3.12673 9.37014 3.6276 9.37014H4.5345C5.20232 9.37014 5.7437 8.82876 5.7437 8.16094V7.85864H3.27995C2.95291 7.85864 2.63469 7.96472 2.37306 8.16094C1.18804 9.04366 2.73297e-06 10.3587 2.73297e-06 11.8581C-0.000876941 12.5337 0.210622 13.1925 0.604602 13.7414L2.1161 15.8273C2.34571 16.1459 2.45302 16.5364 2.4184 16.9276H7.55749C7.55749 16.1054 7.47587 16.323 8.80599 14.0588C9.15581 13.3516 9.34865 12.5772 9.37129 11.7885V10.3919L8.66693 11.5134C8.38921 11.9922 7.85401 12.2607 7.3042 12.197C6.7544 12.1334 6.29468 11.7497 6.13366 11.2202Z" fill="#6FCF97"/>
<path d="M4.54884 9.97639C4.49342 10.2299 4.57088 10.4942 4.75439 10.6777C4.9379 10.8612 5.2022 10.9387 5.45573 10.8833C5.89407 10.7866 6.06033 10.445 6.28706 10.058C7.52044 8.08702 7.4751 8.16562 7.49626 8.10516C7.77386 7.71523 7.68323 7.17415 7.29372 6.89596C7.09759 6.78629 6.86572 6.75972 6.64987 6.82221C6.43402 6.88469 6.25219 7.03101 6.14498 7.22849L6.06336 7.35848C6.23689 7.46689 6.34382 7.65571 6.34752 7.8603V8.1626C6.34755 9.15846 5.54466 9.9681 4.54884 9.97639Z" fill="#6FCF97"/>
<path d="M9.31074 7.85867C8.91817 7.63503 8.4187 7.77002 8.19224 8.16097C8.0169 8.44513 8.31316 7.94331 6.80468 10.3798C6.68571 10.5676 6.64654 10.795 6.69585 11.0117C6.77518 11.3301 7.04339 11.5663 7.36937 11.6046C7.69535 11.6429 8.011 11.4754 8.16201 11.184L9.55258 8.97415C9.79381 8.59933 9.68553 8.09994 9.31074 7.85867Z" fill="#6FCF97"/>
</svg>
